# xmcd
#
# Track frame offsets:
#	150
#	16960
#	35927
#	52298
#	67864
#	81317
#	102143
#	116050
#	128052
#	139440
#	160802
#
# Disc length: 2416 seconds
#
# Revision: 0
# Processed by: cddbd v1.5.1PL0 Copyright (c) Steve Scherf et al.
# Submitted via: audiograbber 1.83.01
#
DISCID=9d096e0b
DTITLE=Hayes Carll - Little Rock
DYEAR=2004
DGENRE=Texas Country
TTITLE0=Wish I Hadn't Stayed So Long
TTITLE1=Take Me Away
TTITLE2=Down The Road Tonight
TTITLE3=Good Friends
TTITLE4=Hey Baby Where You Been
TTITLE5=Rivertown
TTITLE6=Little Rock
TTITLE7=Leave Here Standing
TTITLE8=Sit In With The Band
TTITLE9=Long Way Home
TTITLE10=Chickens
EXTD=
EXTT0=
EXTT1=
EXTT2=
EXTT3=
EXTT4=
EXTT5=
EXTT6=
EXTT7=
EXTT8=
EXTT9=
EXTT10=
PLAYORDER=
